<?xml version="1.0" encoding="iso-8859-1"?>
<!-- Generator: Adobe Illustrator 19.0.0, SVG Export Plug-In . SVG Version: 6.00 Build 0)  -->
<svg version="1.1" id="Capa_1" xmlns="http://www.w3.org/2000/svg" xmlns:xlink="http://www.w3.org/1999/xlink" x="0px" y="0px"
	 viewBox="0 0 472 472" style="enable-background:new 0 0 472 472;" xml:space="preserve">
<path style="fill:#D4EDED;" d="M20,72h432v360H20V72z"/>
<path style="fill:#6AC9CD;" d="M4,432h464v40H4V432z"/>
<path style="fill:#97D7D9;" d="M52,392h368v40H52V392z"/>
<path style="fill:#29485A;" d="M124,232h224v32H124V232z"/>
<path style="fill:#0071BC;" d="M340,392H132V264h104h104V392z"/>
<path style="fill:#06AAE9;" d="M236,264h104v128H236V264z"/>
<g>
	<path style="fill:#29485A;" d="M260,312h16v24h-16V312z"/>
	<path style="fill:#29485A;" d="M196,312h16v24h-16V312z"/>
</g>
<path style="fill:#06AAE9;" d="M258.032,18.4L236,0l-22.032,18.4c-17.124,14.27-37.04,24.804-58.472,30.928L132,56l4,25.768
	c7.584,49.303,37.729,92.248,81.52,116.136L236,208l18.512-10.096c43.779-23.895,73.911-66.839,81.488-116.136L340,56l-23.496-6.712
	C295.075,43.176,275.159,32.655,258.032,18.4L258.032,18.4z"/>
<path style="fill:#0071BC;" d="M232.8,169.808c-34.313-18.838-58.192-52.265-64.888-90.832c24.357-7.437,46.978-19.678,66.528-36
	l1.56-1.32l1.544,1.288c19.551,16.32,42.171,28.561,66.528,36c-6.691,38.573-30.563,72.009-64.872,90.864l-3.2,1.736L232.8,169.808z
	"/>
<path style="fill:#F8CF26;" d="M236,75.152l6.472,19.936h20.96l-16.952,12.32l6.472,19.928L236,115.016l-16.952,12.32l6.472-19.928
	l-16.952-12.32h20.96L236,75.152z"/>
<g>
	<path style="fill:#0071BC;" d="M52,136h64v64H52V136z"/>
	<path style="fill:#0071BC;" d="M356,136h64v64h-64V136z"/>
</g>
<g>
</g>
<g>
</g>
<g>
</g>
<g>
</g>
<g>
</g>
<g>
</g>
<g>
</g>
<g>
</g>
<g>
</g>
<g>
</g>
<g>
</g>
<g>
</g>
<g>
</g>
<g>
</g>
<g>
</g>
</svg>
