<?xml version="1.0" encoding="iso-8859-1"?>
<!-- Generator: Adobe Illustrator 19.0.0, SVG Export Plug-In . SVG Version: 6.00 Build 0)  -->
<svg version="1.1" id="Capa_1" xmlns="http://www.w3.org/2000/svg" xmlns:xlink="http://www.w3.org/1999/xlink" x="0px" y="0px"
	 viewBox="0 0 496.485 496.485" style="enable-background:new 0 0 496.485 496.485;" xml:space="preserve">
<rect x="232.068" y="282.562" style="fill:#E5E5E5;" width="32.365" height="213.923"/>
<rect x="189.169" y="464.12" style="fill:#CACACA;" width="118.148" height="32.365"/>
<rect x="120.645" y="52.861" transform="matrix(-0.7071 -0.7071 0.7071 -0.7071 296.1704 483.5906)" style="fill:#E95353;" width="255.191" height="255.191"/>
<path style="fill:#ED6262;" d="M428.692,180.441L248.251,0l-40.867,40.867c-3.848,3.848-4.422,10.318-0.652,14.414
	c3.848,4.344,10.566,4.499,14.662,0.403l13.219-13.219c3.444-3.444,8.921-3.196,12.366,0.403c0,0,0,0,0.078,0.078
	c0,0,0,0,0.078,0.078c3.522,3.351,3.848,8.921,0.403,12.366l-14.615,14.615c-3.925,3.925-4.499,10.24-0.9,14.336
	c3.956,4.267,10.488,4.453,14.6,0.559l19.518-19.518c4.096-4.096,10.783-3.956,14.755,0.372c3.646,4.096,3.088,10.457-0.791,14.336
	L261.47,98.723c-3.646,3.879-4.096,10.069-0.559,14.072c4.018,4.344,10.643,4.422,14.739,0.326l15.95-15.794
	c4.096-4.096,10.736-4.018,14.739,0.326c3.6,4.096,3.119,10.488-0.822,14.414l-17.191,17.191c-3.77,3.925-3.693,10.24,0.171,14.088
	c4.018,4.018,10.488,3.925,14.414,0l20.48-20.48c3.274-3.274,8.688-3.274,12.04,0.078l0.496,0.496
	c3.522,3.025,3.6,8.518,0.403,11.714l-20.03,20.03c-3.925,3.925-4.499,10.24-0.9,14.336c4.018,4.344,10.721,4.499,14.817,0.403
	l14.941-14.941c3.274-3.274,8.689-3.274,11.962,0c4.406,4.406,3.848,9.914,0.574,13.188l-11.497,11.497
	c-3.848,3.848-4.422,10.318-0.745,14.336c3.848,4.344,10.643,4.592,14.739,0.496l13.219-13.219
	c3.444-3.444,8.937-3.196,12.288,0.326c0.078,0.078,0.078,0.078,0.078,0.078c0.078,0.078,0.078,0.078,0.171,0.155
	c3.522,3.367,3.77,8.844,0.326,12.288l-14.615,14.615c-3.925,3.925-4.422,10.318-0.822,14.414
	c4.018,4.344,10.643,4.422,14.739,0.326L428.692,180.441z"/>
<path style="fill:#DB4D4D;" d="M67.809,180.441l180.441,180.441l40.867-40.867c3.848-3.848,4.422-10.318,0.652-14.414
	c-3.848-4.344-10.566-4.499-14.662-0.403l-13.219,13.219c-3.444,3.444-8.921,3.196-12.366-0.403c0,0,0,0-0.078-0.078
	c0,0,0,0-0.078-0.078c-3.522-3.351-3.848-8.937-0.403-12.366l14.615-14.615c3.925-3.925,4.499-10.24,0.9-14.336
	c-3.941-4.267-10.488-4.453-14.6-0.559l-19.518,19.518c-4.096,4.096-10.783,3.956-14.755-0.372
	c-3.646-4.096-3.088-10.457,0.776-14.336l18.634-18.634c3.646-3.863,4.096-10.069,0.559-14.072
	c-4.018-4.344-10.643-4.422-14.739-0.326l-15.95,15.794c-4.096,4.096-10.736,4.018-14.739-0.326
	c-3.6-4.096-3.103-10.488,0.822-14.414l17.191-17.191c3.77-3.925,3.693-10.24-0.171-14.088c-4.018-4.018-10.488-3.925-14.414,0
	l-20.48,20.48c-3.15,3.15-8.332,3.631-12.536-0.574c-3.522-3.025-3.6-8.518-0.403-11.714l20.03-20.03
	c3.925-3.925,4.499-10.24,0.9-14.336c-4.018-4.344-10.721-4.499-14.817-0.403l-14.941,14.941c-3.119,3.119-8.301,3.646-12.443-0.496
	c-3.522-3.522-3.522-9.263-0.078-12.691l11.497-11.497c3.848-3.848,4.422-10.318,0.745-14.336
	c-3.848-4.344-10.643-4.592-14.739-0.496l-13.219,13.219c-3.444,3.444-8.921,3.196-12.288-0.326
	c-0.078-0.078-0.078-0.078-0.078-0.078c-0.078-0.078-0.078-0.078-0.171-0.171c-3.522-3.351-3.77-8.844-0.326-12.288l14.615-14.615
	c3.925-3.925,4.422-10.318,0.822-14.414c-4.065-4.36-10.69-4.437-14.786-0.341L67.809,180.441z"/>
<path style="fill:#FFFFFF;" d="M198.881,257.179v-153.46h49.726c18.835,0,31.123,0.76,36.848,2.296
	c8.797,2.296,16.151,7.308,22.094,15.019c5.927,7.711,8.89,17.672,8.89,29.882c0,9.418-1.707,17.346-5.135,23.769
	c-3.413,6.423-7.758,11.466-13.033,15.127c-5.275,3.662-10.628,6.082-16.074,7.277c-7.401,1.458-18.106,2.203-32.132,2.203h-20.201
	v57.887H198.881z M229.865,129.676v43.551h16.958c12.21,0,20.371-0.807,24.498-2.405c4.112-1.614,7.339-4.112,9.681-7.54
	c2.343-3.429,3.506-7.401,3.506-11.931c0-5.585-1.645-10.193-4.918-13.824c-3.274-3.631-7.432-5.896-12.459-6.811
	c-3.693-0.698-11.124-1.04-22.295-1.04H229.865z"/>
<g>
</g>
<g>
</g>
<g>
</g>
<g>
</g>
<g>
</g>
<g>
</g>
<g>
</g>
<g>
</g>
<g>
</g>
<g>
</g>
<g>
</g>
<g>
</g>
<g>
</g>
<g>
</g>
<g>
</g>
</svg>
