<?xml version="1.0" encoding="iso-8859-1"?>
<!-- Generator: Adobe Illustrator 17.1.0, SVG Export Plug-In . SVG Version: 6.00 Build 0)  -->
<!DOCTYPE svg PUBLIC "-//W3C//DTD SVG 1.1//EN" "http://www.w3.org/Graphics/SVG/1.1/DTD/svg11.dtd">
<svg fill="white" version="1.1" id="Capa_1" xmlns="http://www.w3.org/2000/svg" xmlns:xlink="http://www.w3.org/1999/xlink" x="0px" y="0px"
	 viewBox="0 0 358.692 358.692" style="enable-background:new 0 0 358.692 358.692;" xml:space="preserve">
<g>
	<path d="M340.998,111.326h-46.514c-7.168,0-13,5.831-13,13v27.553h-38.468c-7.168,0-13,5.832-13,13v26.207h-38.467
		c-7.168,0-13,5.831-13,13v26.207h-38.468c-7.169,0-13,5.832-13,13.001V269.5H88.614c-7.168,0-13,5.832-13,13v26.207H38.916
		c-7.168,0-13,5.832-13,13v23.985c0,7.168,5.832,13,13,13H85.43c0.54,0,1.069-0.043,1.592-0.108
		c0.523,0.064,1.052,0.108,1.592,0.108h46.514c0.848,0,1.674-0.088,2.477-0.243c0.803,0.156,1.629,0.243,2.477,0.243h46.514
		c0.848,0,1.674-0.088,2.477-0.243c0.803,0.156,1.629,0.243,2.477,0.243h46.514c0.847,0,1.674-0.088,2.477-0.243
		c0.803,0.156,1.629,0.243,2.477,0.243h46.514c0.847,0,1.674-0.088,2.477-0.243c0.803,0.156,1.629,0.243,2.477,0.243h46.514
		c7.168,0,13-5.831,13-13V124.326C353.998,117.157,348.166,111.326,340.998,111.326z"/>
	<path d="M47.713,274.096c0,3.866,3.134,7,7,7s7-3.134,7-7v-64.653l87.584-66.53v52.38c0,3.866,3.134,7,7,7c3.866,0,7-3.134,7-7
		v-63.014l86.571-65.76v50.36c0,3.866,3.134,7,7,7c3.866,0,7-3.134,7-7V55.884l49.921-37.92c4.398-3.34,5.255-9.614,1.914-14.012
		c-3.341-4.399-9.615-5.254-14.012-1.915L8.646,224.638c-4.398,3.34-5.255,9.614-1.914,14.012c1.967,2.59,4.951,3.952,7.97,3.952
		c2.108,0,4.233-0.664,6.042-2.037l26.97-20.487V274.096z"/>
</g>
<g>
</g>
<g>
</g>
<g>
</g>
<g>
</g>
<g>
</g>
<g>
</g>
<g>
</g>
<g>
</g>
<g>
</g>
<g>
</g>
<g>
</g>
<g>
</g>
<g>
</g>
<g>
</g>
<g>
</g>
</svg>
